<?xml version='1.0' encoding='iso-8859-1'?>
<svg version="1.1" xmlns="http://www.w3.org/2000/svg" viewBox="0 0 470 470" xmlns:xlink="http://www.w3.org/1999/xlink" enable-background="new 0 0 470 470">
  <g>
    <path d="m460.738,232.464c-0.103-2.53-1.474-4.837-3.647-6.136-24.435-14.601-50.673-22.317-75.877-22.317-20.921,0-40.268,5.194-57.501,15.438-37.159,22.088-58.565,65.212-57.807,115.953l-23.407,13.915v-79.317h12.5c4.143,0 7.5-3.357 7.5-7.5s-3.357-7.5-7.5-7.5h-12.5v-29.906c23.923-1.618 46.286-11.033 63.624-26.92 20.233-18.539 31.376-44.318 31.376-72.59v-97.835c0-4.143-3.357-7.5-7.5-7.5-13.214,0-25.969,1.976-37.962,5.753-15.913-13.29-35.086-22.213-55.723-25.887-0.869-0.154-1.76-0.154-2.629,0-20.627,3.673-39.792,12.589-55.701,25.869-12.026-3.775-24.782-5.735-37.985-5.735-4.142,0-7.5,3.357-7.5,7.5v97.833c0,28.267 11.169,54.048 31.451,72.595 17.336,15.854 39.669,25.26 63.549,26.905v124.233l-23.408-13.914c0.759-50.742-20.648-93.865-57.806-115.953-17.234-10.244-36.581-15.438-57.501-15.438-25.205,0-51.442,7.717-75.877,22.317-2.173,1.299-3.544,3.605-3.646,6.136-2.133,52.687 19.432,97.717 57.685,120.456 17.234,10.244 36.58,15.438 57.5,15.438 23.868,0 48.661-6.932 71.975-20.065l31.078,18.474v54.9h-12.5c-4.142,0-7.5,3.357-7.5,7.5s3.358,7.5 7.5,7.5h12.5v25.834c0,4.143 3.358,7.5 7.5,7.5 4.143,0 7.5-3.357 7.5-7.5v-59.167h12.5c4.143,0 7.5-3.357 7.5-7.5s-3.357-7.5-7.5-7.5h-12.5v-21.566l31.077-18.473c23.314,13.133 48.106,20.065 71.974,20.065 20.92,0 40.268-5.195 57.5-15.438 38.254-22.741 59.819-67.77 57.688-120.457zm-336.292,120.894c-18.186,0-34.953-4.485-49.835-13.333-32.47-19.301-51.163-57.558-50.477-102.871 21.077-11.881 43.349-18.143 64.65-18.143 18.186,0 34.954,4.485 49.837,13.333 30.346,18.038 48.653,52.636 50.359,94.076l-138.051-82.064c-3.561-2.115-8.163-0.946-10.279,2.615-2.117,3.561-0.946,8.162 2.614,10.279l138.054,82.064c-18.729,9.217-38.175,14.044-56.872,14.044zm110.553-338.234c14.793,2.826 28.682,8.749 40.808,17.319-15.642,7.568-29.523,18.497-40.794,32.369-5.975-7.349-12.77-13.979-20.293-19.764-6.414-4.932-13.272-9.146-20.483-12.639 12.115-8.55 25.987-14.462 40.762-17.285zm-87.5,110.458v-90.096c10.196,0.643 19.942,2.606 29.093,5.762 0.416,0.189 0.846,0.341 1.284,0.451 20.366,7.318 37.691,20.621 50.237,38.655 0.365,0.846 0.888,1.63 1.561,2.306 5.5,8.349 10.004,17.656 13.353,27.805 1.297,3.933 5.533,6.074 9.472,4.772 3.934-1.297 6.07-5.538 4.772-9.472-3.316-10.054-7.743-19.512-13.172-28.22 18.785-24.983 46.828-39.997 78.399-42.052v90.091c0,47.356-35.416,77.7-73.586,83.674 9.792-18.8 15.086-40.174 15.086-61.548 0-1.65-0.031-3.328-0.092-4.987-0.153-4.14-3.616-7.352-7.771-7.22-4.14,0.152-7.372,3.632-7.22,7.771 0.055,1.477 0.082,2.97 0.082,4.437 0,22.061-6.347,44.108-17.932,62.543-41.757-1.896-83.566-33.259-83.566-84.672zm247.887,214.443c-14.883,8.848-31.65,13.333-49.835,13.333-18.698,0-38.144-4.828-56.873-14.042l138.058-82.066c3.561-2.117 4.731-6.719 2.615-10.279s-6.72-4.729-10.279-2.615l-138.056,82.064c1.706-41.44 20.014-76.038 50.36-94.076 14.884-8.848 31.651-13.333 49.837-13.333 21.301,0 43.573,6.262 64.65,18.143 0.685,45.313-18.007,83.57-50.477,102.871z"/>
  </g>
</svg>
